<!--<svg id="Layer_1" data-name="Layer 1" xmlns="http://www.w3.org/2000/svg" viewBox="0 0 1999.06 1999.06">
	<defs>
		<style>.cls-1{fill:none;stroke:white;stroke-miterlimit:10;stroke-width:100px;}</style>
	</defs>
	<path class="cls-1" d="M848.4,1757.09c251,0,454.51-203.5,454.51-454.52" />
	<path class="cls-1" d="M848.4,848.91c251,0,454.51,203.49,454.51,454.51" />
	<path class="cls-1" d="M393.88,1302.57c251,0,454.52,203.5,454.52,454.52C597.37,1757.09,393.88,1553.59,393.88,1302.57Z" />
	<path class="cls-1" d="M996.53,288.93c-251,0-454.51,203.49-454.51,454.51" />
	<path class="cls-1" d="M996.53,1197.1c-251,0-454.51-203.49-454.51-454.51" />
	<path class="cls-1" d="M1451,743.44c-251,0-454.51-203.49-454.51-454.51C1247.55,288.93,1451,492.42,1451,743.44Z" />
	<path class="cls-1" d="M1605.18,495.6c-225.15,111-497.65,18.47-608.65-206.67C1221.68,177.93,1494.18,270.46,1605.18,495.6Z" />
</svg>--><svg id="Layer_1" data-name="Layer 1" xmlns="http://www.w3.org/2000/svg" viewBox="0 0 5000 5000">
	<defs>
		<style>.cls-1{fill:none;stroke:#fff;stroke-miterlimit:10;stroke-width:150px;}.cls-2{fill:#fff;}</style>
	</defs>
	<path class="cls-1" d="M2354.29,933.6C2801.92,1450.16,3583.55,1506,4100.1,1058.4,3652.47,541.85,2870.85,486,2354.29,933.6c156.63,665.34,823,1077.72,1488.3,921.09-47.51-201.79-141.9-380.32-268.94-526.76" />
	<path class="cls-2" d="M1161.26,1953.29c327.88-43.48,910-38,910-38C3402.49,1915,3657,2936.75,3657,3062.1c-327.88,43.49-910,38.05-910,38.05C1415.74,3100.37,1161.26,2078.65,1161.26,1953.29Z" />
	<path class="cls-2" d="M1161.26,4338.24c327.88,43.48,910,38,910,38C3402.49,4376.5,3657,3354.78,3657,3229.42c-327.88-43.48-910-38.05-910-38.05C1415.74,3191.16,1161.26,4212.88,1161.26,4338.24Z" />
	<path class="cls-2" d="M2066.63,894.13c-1088.3-87.48-898,901.09-898,901.09C2256.9,1882.69,2066.63,894.13,2066.63,894.13Z" />
</svg>